<svg xmlns="http://www.w3.org/2000/svg" width="19.211" height="19.133" viewBox="0 0 19.211 19.133">
  <g id="Group_131" data-name="Group 131" transform="translate(-607.368 127.632)">
    <g id="cart-large-2-svgrepo-com" transform="translate(606 -130)">
      <path id="Path_135" data-name="Path 135" d="M2,3l.265.088c1.32.44,1.98.66,2.358,1.184S5,5.492,5,6.883V9.5c0,2.828,0,4.243.879,5.121S8.172,15.5,11,15.5h8" fill="none" stroke="#010d77" stroke-linecap="round" stroke-width="1"/>
      <path id="Path_136" data-name="Path 136" d="M7.5,18A1.5,1.5,0,1,1,6,19.5,1.5,1.5,0,0,1,7.5,18Z" fill="none" stroke="#010d77" stroke-width="1"/>
      <path id="Path_137" data-name="Path 137" d="M16.5,18A1.5,1.5,0,1,1,15,19.5,1.5,1.5,0,0,1,16.5,18Z" fill="none" stroke="#010d77" stroke-width="1"/>
      <path id="Path_138" data-name="Path 138" d="M5,6H16.45c2.055,0,3.082,0,3.527.674s.04,1.619-.77,3.508l-.429,1c-.378.882-.567,1.323-.943,1.571A3.343,3.343,0,0,1,16.022,13H5" fill="none" stroke="#010d77" stroke-width="1"/>
    </g>
  </g>
</svg>
