<svg xmlns="http://www.w3.org/2000/svg" width="34.442" height="43.837" viewBox="0 0 34.442 43.837">
  <path id="Path_560" data-name="Path 560" d="M40.228,426.581h-19.3a.863.863,0,0,1,0-1.725h8.79v-7.792a19.144,19.144,0,0,1-6.436-1.346,19.7,19.7,0,0,1-6.264-4.057L17,411.641c-6.483-6.436-2.945-15.11.176-22.762.678-1.662,1.318-3.231,1.838-4.742l.279-.811a.862.862,0,0,1,.816-.582H41.049a.862.862,0,0,1,.816.581l.279.811c.513,1.492,1.145,3.043,1.814,4.684l.024.058c3.124,7.657,6.664,16.336.166,22.774a19.718,19.718,0,0,1-6.273,4.066,19.145,19.145,0,0,1-6.433,1.346v7.792h8.787a.863.863,0,1,1,0,1.725M23.935,414.121a18.389,18.389,0,0,0,13.284,0,17.966,17.966,0,0,0,5.713-3.694c2.553-2.529,3.508-5.6,3-9.648a27.3,27.3,0,0,0-1.18-5.005h-28.2a.857.857,0,0,1-.151-.013,27.35,27.35,0,0,0-1.183,5.018c-.5,4.053.451,7.119,3,9.647l.011.011a17.967,17.967,0,0,0,5.7,3.684ZM16.994,394.05H44.162c-.551-1.513-1.168-3.027-1.778-4.52l-.024-.058c-.678-1.664-1.319-3.236-1.848-4.774l-.079-.228H20.721l-.079.229c-.536,1.556-1.185,3.148-1.872,4.832-.609,1.493-1.226,3.007-1.777,4.519m13.584,19.588a.863.863,0,1,1,0-1.725,13.7,13.7,0,0,0,5.155-.965,14.737,14.737,0,0,0,2.392-1.247,13.03,13.03,0,0,0,2.044-1.621,8.257,8.257,0,0,0,2.309-7.436.863.863,0,1,1,1.712-.212,9.982,9.982,0,0,1-2.808,8.875l-.009.009a14.688,14.688,0,0,1-2.313,1.836,16.436,16.436,0,0,1-2.673,1.394,15.446,15.446,0,0,1-5.81,1.094" transform="translate(-13.357 -382.744)" fill="#010d77"/>
</svg>
