<svg xmlns="http://www.w3.org/2000/svg" width="50.987" height="49.102" viewBox="0 0 50.987 49.102">
  <path id="Path_561" data-name="Path 561" d="M1538.369,623.19c-.422,0-.849-.006-1.282-.019-6.805-.189-11.9-1.6-15.575-4.326-4.43-3.281-6.676-8.484-6.676-15.465,0-5.606,2.79-11.989,7.282-16.658a25.17,25.17,0,0,1,3.261-2.86,8.326,8.326,0,0,0,1.154-.943c-.045-.115-.137-.3-.172-.366-.274-.54-.521-1.086-.739-1.568-.165-.364-.365-.807-.468-.988l-3.305-2.608a1.69,1.69,0,0,1-.418-1.946,1.811,1.811,0,0,1,1.6-1.355h20.357c2.459,0,3.341,1.9,3.731,3.277,4.983-.3,9.073.989,12.172,3.828a18.613,18.613,0,0,1,5.007,8.423,40.01,40.01,0,0,1,1.52,11.938,1.007,1.007,0,0,1-1.006,1h-.007a1.006,1.006,0,0,1-1-1.012c.055-8.771-1.976-15.295-5.874-18.864-2.637-2.414-6.158-3.525-10.475-3.315l.359,3.268a24.4,24.4,0,0,1,5.124,4.091c4.492,4.669,7.282,11.052,7.282,16.658,0,6.184-1.744,11.016-5.183,14.361-3.72,3.618-9.326,5.448-16.673,5.449M1516.919,601.9q-.069.749-.07,1.481c0,6.4,1.917,10.926,5.862,13.848,3.332,2.468,8.053,3.754,14.433,3.932,7.418.2,12.967-1.429,16.5-4.861,3.035-2.952,4.574-7.3,4.574-12.919q0-.731-.07-1.481Zm.3-2.013h40.621a24.665,24.665,0,0,0-6.348-11.77,22.25,22.25,0,0,0-5.112-3.993,1.007,1.007,0,0,1-.508-.767l-.522-4.759c-.365-1.656-.775-2.5-1.96-2.5h-19.925l3.031,2.393c.305.24.473.591.958,1.662.21.463.447.988.7,1.488.905,1.785.283,2.472-1.588,3.843a23.1,23.1,0,0,0-3,2.631,24.661,24.661,0,0,0-6.349,11.77m26,15.092h-5.64a1.006,1.006,0,0,1,0-2.013h5.64a1.006,1.006,0,0,1,0,2.013m0-6.517h-5.64a1.006,1.006,0,0,1,0-2.013h5.64a1.006,1.006,0,0,1,0,2.013m0-13.034h-5.64a1.006,1.006,0,0,1,0-2.013h5.64a1.006,1.006,0,0,1,0,2.013m0-6.517h-5.64a1.006,1.006,0,0,1,0-2.013h5.64a1.006,1.006,0,0,1,0,2.013" transform="translate(-1514.836 -574.088)" fill="#010d77"/>
</svg>
