<svg xmlns="http://www.w3.org/2000/svg" width="57.607" height="56.283" viewBox="0 0 57.607 56.283">
  <path id="Path_562" data-name="Path 562" d="M12.674,624.478A12.859,12.859,0,0,1,0,611.469a13.493,13.493,0,0,1,.173-2.148,1.09,1.09,0,0,1,1.076-.916h6.7a19.992,19.992,0,0,1-2.364-5.378,1.091,1.091,0,0,1,0-.572,20.635,20.635,0,0,1,4.626-8.365,1.064,1.064,0,0,1,.207-.178c-.021-1.214-.072-2.459-.126-3.769-.286-6.964-.581-14.164,3.536-18.453,2.257-2.352,5.515-3.5,9.959-3.5h8.165c4.436,0,7.689,1.14,9.944,3.484,4.1,4.266,3.827,11.43,3.559,18.358-.044,1.145-.086,2.24-.109,3.308a1.172,1.172,0,0,1,.119.082l3.892-2.555a1.093,1.093,0,0,1,.7-.175l6.56.593a1.09,1.09,0,0,1,.754,1.765c-.437.548-.892,1.031-1.333,1.5a11.963,11.963,0,0,0-2.228,2.93,20.375,20.375,0,0,0-1.073,3.463c-.752,2.943-1.528,5.986-3.432,6.965a8.443,8.443,0,0,1-1.337.538,23.54,23.54,0,0,1-19.994,10.595,25.231,25.231,0,0,1-4.7-.44,12.6,12.6,0,0,1-10.595,5.874M2.215,610.585c-.023.3-.035.591-.035.884A10.678,10.678,0,0,0,12.674,622.3a10.678,10.678,0,0,0,10.5-10.829c0-.294-.012-.589-.035-.884Zm22.117,5.992a23.119,23.119,0,0,0,3.641.287,21.3,21.3,0,0,0,18.354-9.909,1.091,1.091,0,0,1,.666-.5,6.464,6.464,0,0,0,1.316-.487c1.031-.53,1.773-3.441,2.316-5.566a21.359,21.359,0,0,1,1.236-3.9,13.162,13.162,0,0,1,2.395-3.241l-4.017-.363-4.565,3a1.09,1.09,0,0,1-1.413-.188q-.153-.173-.311-.342c-.019-.021-.037-.041-.054-.063a1.1,1.1,0,0,1-.346-.194c-.2-.17-.591-.527-1.08-.98-.582-.538-1.556-1.439-1.812-1.617a1.09,1.09,0,0,1,1.246-1.788,16.518,16.518,0,0,1,1.307,1.124c.021-.635.045-1.272.07-1.9.251-6.472.51-13.165-2.951-16.763-1.822-1.894-4.561-2.815-8.374-2.815H23.789c-3.819,0-6.562.924-8.387,2.825-3.473,3.619-3.2,10.348-2.931,16.855.027.651.054,1.311.077,1.969a20.2,20.2,0,0,1,1.659-1.408,1.087,1.087,0,0,1,.808-.172,1.866,1.866,0,0,1-.941-1.573c0-1.583,2.052-2.318,4.058-2.828a49.444,49.444,0,0,1,6.562-1.088l-.186-.365a7.655,7.655,0,0,1-1.138-2.876c0-2.741,2.731-5.792,4.582-5.792,1.343,0,2.638,1.437,3,1.877a6.434,6.434,0,0,1,1.58,3.915,7.689,7.689,0,0,1-1.14,2.883c-.056.11-.119.232-.183.358a49.224,49.224,0,0,1,6.561,1.088c2.007.51,4.058,1.245,4.058,2.828,0,.811-.485,2.009-4.675,3.047a40.111,40.111,0,0,1-9.2,1.031,40.1,40.1,0,0,1-9.2-1.031,14.125,14.125,0,0,1-3.065-1.066l.037.051a1.09,1.09,0,0,1-.286,1.514c-.359.245-1.471,1.263-2.206,1.936-.428.392-.8.73-1.006.908a1.08,1.08,0,0,1-.309.185,1.086,1.086,0,0,1-.086.108,18.5,18.5,0,0,0-4.058,7.189,18.054,18.054,0,0,0,2.749,5.576.925.925,0,0,1,.057.088H24.1a1.089,1.089,0,0,1,1.075.915,13.426,13.426,0,0,1,.174,2.149,13.233,13.233,0,0,1-1.018,5.108m-7.756-27.71c1.348.735,5.61,1.9,11.377,1.9s10.031-1.168,11.378-1.9c-.955-.489-3.669-1.327-9.728-1.882a1.132,1.132,0,0,1-.891-.582c-.358-.649-.081-1.191.744-2.8a15.655,15.655,0,0,0,.9-1.937,4.727,4.727,0,0,0-2.4-3.562,4.73,4.73,0,0,0-2.4,3.562,15.613,15.613,0,0,0,.9,1.929c.826,1.612,1.1,2.155.747,2.806a1.135,1.135,0,0,1-.891.583h0c-6.06.556-8.773,1.393-9.728,1.882M26.2,585.9h0Zm3.594-1.085h0m-3.694,0h0m4.256-3.172h0M27.925,578.1Z" transform="translate(0 -568.195)" fill="#010d77"/>
</svg>
