<svg id="Group_140" data-name="Group 140" xmlns="http://www.w3.org/2000/svg" width="65.728" height="51.973" viewBox="0 0 65.728 51.973">
  <path id="Path_464" data-name="Path 464" d="M1367.033,19.074a1.238,1.238,0,1,0,1.238,1.238,1.238,1.238,0,0,0-1.238-1.238" transform="translate(-1336.105 -14.144)" fill="#010d77" fill-rule="evenodd"/>
  <path id="Path_465" data-name="Path 465" d="M1365.981,21.515a2.253,2.253,0,1,1,2.254-2.254,2.256,2.256,0,0,1-2.254,2.254m0-2.477a.223.223,0,1,0,.223.223.224.224,0,0,0-.223-.223" transform="translate(-1335.054 -13.093)" fill="#010d77"/>
  <path id="Path_466" data-name="Path 466" d="M1363.805,61.01h-.491l-.6,0h-7.027l-.561,0c-1.682.008-2.9.014-3.754-.841-.8-.792-.959-2.034-.959-3.655V40.9c0-2.227.346-3.577,1.158-4.515a5.214,5.214,0,0,1,4.117-1.406h2.5V28.745a5.978,5.978,0,0,1-1.028-.254A4.463,4.463,0,0,1,1355.4,27.4c-1.213-1.264-1.551-5.876-1.64-7.8q-.016-.326-.034-.671c-.147-2.855-.331-6.408,1.635-8.448a5.828,5.828,0,0,1,7.769.075c1.89,2.026,1.7,5.485,1.549,8.264-.015.275-.029.543-.041.8-.089,1.926-.426,6.538-1.618,7.779a4.872,4.872,0,0,1-2.8,1.346V34.98h2.5c3.845,0,5.275,1.6,5.275,5.921V56.512c0,1.626-.163,2.871-.958,3.662-.768.764-1.817.836-3.229.836m-8.114-2.034h7.027l.608,0a4.764,4.764,0,0,0,2.277-.244c.164-.163.359-.681.359-2.223V40.9c0-1.657-.21-2.671-.662-3.191-.283-.326-.832-.7-2.583-.7h-7.027c-2.514,0-3.245.511-3.245,3.891V56.512c0,1.535.2,2.052.361,2.216a4.833,4.833,0,0,0,2.313.25l.571,0m3.514-32.249a1,1,0,0,1,.334.056A3.17,3.17,0,0,0,1361.55,26c.264-.329.866-2.334,1.058-6.472.012-.263.027-.536.042-.817.131-2.395.293-5.375-1.007-6.768a3.846,3.846,0,0,0-4.822-.052c-1.355,1.405-1.189,4.6-1.069,6.934.012.233.024.461.034.682.19,4.11.823,6.181,1.083,6.5a2.439,2.439,0,0,0,.956.57,4.162,4.162,0,0,0,1.047.209,1.01,1.01,0,0,1,.333-.056m3.418,29.345a1.015,1.015,0,0,1-1.015-1.015V41.911a1.015,1.015,0,1,1,2.03,0V55.056a1.015,1.015,0,0,1-1.015,1.015m-3.418,0a1.015,1.015,0,0,1-1.016-1.015V41.911a1.015,1.015,0,1,1,2.03,0V55.056a1.015,1.015,0,0,1-1.015,1.015m-3.418,0a1.015,1.015,0,0,1-1.015-1.015V41.911a1.015,1.015,0,0,1,2.031,0V55.056a1.015,1.015,0,0,1-1.015,1.015" transform="translate(-1328.281 -9.037)" fill="#010d77"/>
  <path id="Path_488" data-name="Path 488" d="M1414.375,19.074a1.238,1.238,0,1,1-1.238,1.238,1.238,1.238,0,0,1,1.238-1.238" transform="translate(-1360.193 -14.144)" fill="#010d77" fill-rule="evenodd"/>
  <path id="Path_489" data-name="Path 489" d="M1413.325,21.515a2.253,2.253,0,1,1,2.253-2.254,2.256,2.256,0,0,1-2.253,2.254m0-2.477a.223.223,0,1,0,.224.223.223.223,0,0,0-.224-.223" transform="translate(-1359.142 -13.093)" fill="#010d77"/>
  <path id="Path_490" data-name="Path 490" d="M1403.711,60.571A11.719,11.719,0,0,1,1392.187,51a1.015,1.015,0,0,1,1-1.2h9.511V28.749a4.878,4.878,0,0,1-2.8-1.346c-1.191-1.242-1.527-5.854-1.617-7.779-.012-.258-.027-.527-.042-.8-.151-2.779-.339-6.237,1.55-8.263a5.828,5.828,0,0,1,7.769-.075c1.966,2.04,1.783,5.593,1.635,8.448-.012.229-.024.454-.034.671-.089,1.925-.426,6.537-1.64,7.8a4.463,4.463,0,0,1-1.761,1.089,6.021,6.021,0,0,1-1.03.254V49.8h9.512a1.015,1.015,0,0,1,1,1.2,11.719,11.719,0,0,1-11.524,9.569m-9.225-8.74a9.7,9.7,0,0,0,18.451,0Zm6.88-25.83a3.17,3.17,0,0,0,2.011.782,1.045,1.045,0,0,1,.667,0,4.147,4.147,0,0,0,1.047-.21,2.426,2.426,0,0,0,.961-.576c.254-.307.887-2.379,1.077-6.489.01-.22.022-.448.034-.682.12-2.333.286-5.529-1.069-6.934a3.845,3.845,0,0,0-4.822.052c-1.3,1.393-1.138,4.373-1.008,6.768.015.281.03.555.042.818.192,4.138.794,6.144,1.058,6.472m0,0h0Z" transform="translate(-1349.525 -9.037)" fill="#010d77"/>
  <path id="Path_494" data-name="Path 494" d="M1321.5,19.074a1.238,1.238,0,1,1-1.238,1.238,1.239,1.239,0,0,1,1.238-1.238" transform="translate(-1312.937 -14.144)" fill="#010d77" fill-rule="evenodd"/>
  <path id="Path_495" data-name="Path 495" d="M1320.447,21.515a2.253,2.253,0,1,1,2.253-2.254,2.256,2.256,0,0,1-2.253,2.254m0-2.477a.223.223,0,1,0,.223.223.224.224,0,0,0-.223-.223" transform="translate(-1311.886 -13.093)" fill="#010d77"/>
  <path id="Path_496" data-name="Path 496" d="M1313.919,60.57c-3.322,0-7.547-3.437-8.523-13.125a7.728,7.728,0,0,1,1.958-6.034A8.511,8.511,0,0,1,1312.9,38.7V28.749a4.877,4.877,0,0,1-2.8-1.346c-1.192-1.242-1.528-5.854-1.617-7.779-.012-.258-.027-.527-.042-.8-.151-2.779-.34-6.238,1.55-8.264a5.827,5.827,0,0,1,7.768-.075,6.65,6.65,0,0,1,1.612,3.932h12.365a1.015,1.015,0,0,1,0,2.03h-12.257c0,.851-.044,1.695-.084,2.486-.012.23-.024.454-.033.671-.089,1.924-.426,6.536-1.641,7.8a4.459,4.459,0,0,1-1.761,1.089,6.038,6.038,0,0,1-1.03.254V38.7a8.511,8.511,0,0,1,5.549,2.712,7.729,7.729,0,0,1,1.958,6.035c-.976,9.687-5.2,13.124-8.521,13.124m0-19.891a6.686,6.686,0,0,0-5.059,2.093,5.722,5.722,0,0,0-1.444,4.469,19.485,19.485,0,0,0,2.644,8.7c1.119,1.677,2.489,2.6,3.859,2.6s2.74-.923,3.858-2.6a19.48,19.48,0,0,0,2.643-8.7,5.719,5.719,0,0,0-1.444-4.47,6.686,6.686,0,0,0-5.058-2.094M1311.572,26a3.173,3.173,0,0,0,2.012.782,1.043,1.043,0,0,1,.667,0,4.16,4.16,0,0,0,1.048-.21,2.433,2.433,0,0,0,.96-.576c.255-.307.888-2.379,1.077-6.489q.016-.331.034-.682c.12-2.333.286-5.529-1.069-6.934a3.846,3.846,0,0,0-4.822.052c-1.3,1.394-1.138,4.374-1.007,6.768.015.28.03.554.042.817.192,4.139.794,6.144,1.058,6.472m0,0h0Zm52.6-9.558a1.015,1.015,0,0,1,0-2.03m-9.567,2.03h-13.3a1.015,1.015,0,0,1,0-2.03h13.3a1.015,1.015,0,0,1,0,2.03" transform="translate(-1305.354 -9.037)" fill="#010d77"/>
</svg>
