<svg xmlns="http://www.w3.org/2000/svg" width="48.029" height="49.747" viewBox="0 0 48.029 49.747">
  <path id="Path_563" data-name="Path 563" d="M991.528,242.814h-43.5a.937.937,0,0,1,0-1.873h1.716v-5.889a.944.944,0,0,1,.011-.145.933.933,0,0,1-.043-.282,13.6,13.6,0,0,1,1.575-5.063c.952-2.147,2.032-4.581,2.032-7.007a15.348,15.348,0,0,0-.248-1.791c-.085-.49-.16-.923-.2-1.255a2.948,2.948,0,0,1-.3-4.2,4.745,4.745,0,0,1,2.56-8.741h2.893v-1.781a1.839,1.839,0,1,1,1.873,0v1.781H962.8a4.745,4.745,0,0,1,2.56,8.741,2.948,2.948,0,0,1-.3,4.2c-.037.332-.111.765-.2,1.255a15.265,15.265,0,0,0-.248,1.791c0,2.425,1.079,4.86,2.032,7.007a13.6,13.6,0,0,1,1.575,5.063.922.922,0,0,1-.044.282.96.96,0,0,1,.011.145v5.889h1.973V205.633a.921.921,0,0,1,.013-.155c-2.227-3.834-3.356-6.162-3.356-8.13a4.28,4.28,0,0,1,8.56,0c0,2.081-1.4,4.625-3.357,8.124a.952.952,0,0,1,.014.161v35.308h1.974v-5.889a.944.944,0,0,1,.011-.145.933.933,0,0,1-.043-.282,13.6,13.6,0,0,1,1.575-5.063c.952-2.147,2.032-4.581,2.032-7.007a15.348,15.348,0,0,0-.248-1.791c-.085-.49-.16-.923-.2-1.255a2.948,2.948,0,0,1-.295-4.2,4.745,4.745,0,0,1,2.56-8.741h7.66a4.745,4.745,0,0,1,2.56,8.741,2.948,2.948,0,0,1-.3,4.2c-.037.332-.111.765-.2,1.255a15.243,15.243,0,0,0-.248,1.791c0,2.425,1.079,4.86,2.032,7.007a13.608,13.608,0,0,1,1.575,5.063.942.942,0,0,1-.043.283.954.954,0,0,1,.011.145v5.889h1.717a.937.937,0,0,1,0,1.873h-2.653m-15.642-1.873h14.706v-4.952H975.886Zm-24.272,0h14.706v-4.952H951.614Zm24.281-6.825h14.688a16.959,16.959,0,0,0-1.373-3.794c-1.028-2.318-2.193-4.944-2.193-7.766a15.022,15.022,0,0,1,.275-2.11l.039-.23h-8.186c.013.077.027.154.04.23a15.077,15.077,0,0,1,.275,2.11c0,2.822-1.165,5.449-2.193,7.766a17.008,17.008,0,0,0-1.373,3.794m-24.272,0h14.689a16.983,16.983,0,0,0-1.373-3.794c-1.028-2.318-2.193-4.944-2.193-7.766a15.093,15.093,0,0,1,.275-2.11l.039-.23h-8.186l.04.23a15.093,15.093,0,0,1,.275,2.11c0,2.822-1.165,5.449-2.193,7.766a16.976,16.976,0,0,0-1.373,3.794m27.436-17.93a1.079,1.079,0,0,0,0,2.158h8.361a1.079,1.079,0,0,0,0-2.158Zm-24.272,0a1.079,1.079,0,0,0,0,2.158h8.361a1.079,1.079,0,0,0,0-2.158Zm24.623-7.744a2.873,2.873,0,1,0,0,5.746h7.66a2.873,2.873,0,1,0,0-5.746Zm-24.272,0a2.873,2.873,0,0,0,0,5.746h7.66a2.873,2.873,0,0,0,0-5.746Zm15.966-13.5a2.41,2.41,0,0,0-2.407,2.407c0,1.434,1.059,3.589,2.394,5.954,1.4-2.543,2.42-4.576,2.42-5.954a2.41,2.41,0,0,0-2.407-2.407" transform="translate(-947.088 -193.068)" fill="#010d77"/>
</svg>
