<svg id="Group_142" data-name="Group 142" xmlns="http://www.w3.org/2000/svg" xmlns:xlink="http://www.w3.org/1999/xlink" width="49.881" height="51.937" viewBox="0 0 49.881 51.937">
  <defs>
    <clipPath id="clip-path">
      <rect id="Rectangle_449" data-name="Rectangle 449" width="49.881" height="51.937" fill="#010d77"/>
    </clipPath>
  </defs>
  <g id="Group_141" data-name="Group 141" clip-path="url(#clip-path)">
    <path id="Path_564" data-name="Path 564" d="M42.513,51.938a3.165,3.165,0,0,0,2.2-1,2.751,2.751,0,0,0,.687-2.167l-.21-2.281a.832.832,0,0,0,.236-.582v-6.04l.823,3.07a.837.837,0,0,0,1.026.592L49.26,43a.838.838,0,0,0,.592-1.026L47.625,33.66a3.6,3.6,0,0,0-2.2-2.443V15.191h3.44a.838.838,0,0,0,.422-1.562L26.054.114a.838.838,0,0,0-.842,0l-9.127,5.31V3.606a.838.838,0,0,0-.838-.838H11.185a.838.838,0,0,0-.838.838V8.761L1.98,13.629A.838.838,0,0,0,2.4,15.191h3.44v6.19a2.786,2.786,0,0,0-.153,4.689v7.165h-.6A3.972,3.972,0,0,0,1.074,36.8L.019,47.915a3.44,3.44,0,0,0,.857,2.717,4.171,4.171,0,0,0,2.9,1.306Zm-8.952-4.609-.606-6.594a3.065,3.065,0,0,0-1.093-2.086l.425-4.529h2.471a.838.838,0,0,0,.8-.579l1.3-3.993h5.1l1.635,17.782ZM14.2,44.167a1.625,1.625,0,1,1,.282-3.067Zm3.027-6.2L15.6,20.6a.832.832,0,0,0-.248-.52l-2.445-2.4h17.9a1.524,1.524,0,0,1,.973.449,1.032,1.032,0,0,1,.243.837l-1.783,19a3.186,3.186,0,0,0-.348-.02H17.578a3.194,3.194,0,0,0-.349.02M33.313,23.178h3.846l-3.01,9.266H32.444Zm4.456,3.545a9.192,9.192,0,0,1,2.617,1.148H37.4ZM12.023,4.444h2.386V6.4L12.023,7.786ZM5.507,13.515,25.632,1.808,45.758,13.515H44.586a.838.838,0,0,0-.838.838V30.7l-.013,0-.19-2.068a.833.833,0,0,0-.227-.5h0a10.882,10.882,0,0,0-5.031-3l.785-2.416a.839.839,0,0,0-.3-.937l-.157-.113a.838.838,0,0,0-.493-.16H33.47l.223-2.381A2.691,2.691,0,0,0,33.021,17a3.181,3.181,0,0,0-2.212-1H10.854a.837.837,0,0,0-.586,1.436l3.557,3.486H7.517V14.353a.838.838,0,0,0-.838-.838ZM6.874,24.829a1.185,1.185,0,0,1-.719-1.053A1.238,1.238,0,0,1,7.446,22.6h6.659l1,10.634H7.364V25.591a.837.837,0,0,0-.489-.762M2.115,49.5a1.763,1.763,0,0,1-.427-1.431L2.742,36.959A2.3,2.3,0,0,1,5.085,34.91H15.261l.351,3.738a3.055,3.055,0,0,0-.695.824,3.3,3.3,0,1,0-1.093,6.415c.074,0,.148,0,.221-.008l-.266,2.9a2.888,2.888,0,0,0,.236,1.486H3.779A2.549,2.549,0,0,1,2.115,49.5m14.548.758a1.509,1.509,0,0,1-.959-.449,1.092,1.092,0,0,1-.257-.884l.739-8.041a1.391,1.391,0,0,1,1.392-1.27H29.894a1.391,1.391,0,0,1,1.392,1.27l.739,8.041a1.09,1.09,0,0,1-.257.884,1.509,1.509,0,0,1-.959.449Zm26.809-.449a1.508,1.508,0,0,1-.959.449H33.458A2.826,2.826,0,0,0,33.706,49H43.733a1.064,1.064,0,0,1-.261.809M47.648,41.7l-2.012-7.507a1.526,1.526,0,0,0-1.069-1.1l-.63-.188-.037-.4.776.232a1.915,1.915,0,0,1,1.33,1.364L48.018,41.6ZM9.215,39.873a.837.837,0,0,1-.838.838H4.919a.838.838,0,1,1,0-1.675H8.377a.838.838,0,0,1,.838.838m0,2.718a.837.837,0,0,1-.838.838H4.919a.838.838,0,1,1,0-1.675H8.377a.837.837,0,0,1,.838.838m0,2.708a.837.837,0,0,1-.838.838H4.919a.838.838,0,0,1,0-1.675H8.377a.837.837,0,0,1,.838.838m11.718-3.162h0a3.964,3.964,0,1,0,5.606,0,3.97,3.97,0,0,0-5.606,0m1.185,1.185a2.292,2.292,0,0,1,2.531-.479l-3.009,3.01a2.291,2.291,0,0,1,.479-2.531Zm3.237,3.237a2.291,2.291,0,0,1-2.531.478l3.009-3.009a2.292,2.292,0,0,1-.479,2.531" transform="translate(0 -0.001)" fill="#010d77"/>
  </g>
</svg>
