<svg id="Group_144" data-name="Group 144" xmlns="http://www.w3.org/2000/svg" xmlns:xlink="http://www.w3.org/1999/xlink" width="60.724" height="56.139" viewBox="0 0 60.724 56.139">
  <defs>
    <clipPath id="clip-path">
      <rect id="Rectangle_450" data-name="Rectangle 450" width="60.724" height="56.139" fill="#010d77"/>
    </clipPath>
  </defs>
  <g id="Group_143" data-name="Group 143" clip-path="url(#clip-path)">
    <path id="Path_565" data-name="Path 565" d="M17.755,9.168v1.478h-.449a2.9,2.9,0,0,0-2.9,2.9v.613a1.053,1.053,0,0,0-.021.126l-.046.52H9.728a.99.99,0,0,0-.99.99,6.61,6.61,0,0,0,4.923,6.4L11.636,44.228a3.843,3.843,0,0,0,.954,3.025,4.438,4.438,0,0,0,3.077,1.4H36.7a4.439,4.439,0,0,0,3.078-1.4,3.844,3.844,0,0,0,.953-3.025l-1.959-21.3.34.1a.288.288,0,0,1,.046.017h.005c0,.007.011.025.021.061l3.31,12.364a1,1,0,0,0,.959.734,1.041,1.041,0,0,0,.258-.034l2.954-.792a.987.987,0,0,0,.7-1.212L44.051,21.8a5.1,5.1,0,0,0-3.5-3.591l-2.278-.68-.3-3.233v-.753a2.9,2.9,0,0,0-2.892-2.9h-.454V9.168A1.679,1.679,0,0,0,32.957,7.49H19.435a1.68,1.68,0,0,0-1.68,1.677m18.336,6.193,2.48,26.947H13.8l2.475-26.947ZM10.827,16.78h3.33l-.309,3.4a4.625,4.625,0,0,1-3.021-3.4M38.313,45.919a2.486,2.486,0,0,1-1.613.75H15.667a2.486,2.486,0,0,1-1.614-.75,1.86,1.86,0,0,1-.448-1.51l.01-.121H38.751l.01.121a1.859,1.859,0,0,1-.448,1.51M39.989,20.1a3.1,3.1,0,0,1,2.15,2.206L45.2,33.718,44.154,34,41.1,22.59a2.026,2.026,0,0,0-1.418-1.462l-1.1-.33-.108-1.147Zm-4-6.723H16.4a.917.917,0,0,1,.9-.756h17.78a.921.921,0,0,1,.9.756m-3.336-2.736H19.735V9.47H32.653ZM30.91,39.49h.572a3.169,3.169,0,0,0,3.165-3.162V21.607a3.169,3.169,0,0,0-3.165-3.162H30.91a3.165,3.165,0,0,0-3.16,3.162V36.328a3.165,3.165,0,0,0,3.16,3.162M29.73,21.607a1.184,1.184,0,0,1,1.18-1.183h.572a1.185,1.185,0,0,1,1.186,1.183v1.577H31.308a.99.99,0,0,0,0,1.98h1.361v.89H31.308a.99.99,0,0,0,0,1.98h1.361v.935H31.308a.99.99,0,0,0,0,1.98h1.361v.942H31.308a.99.99,0,0,0,0,1.98h1.361v.989H31.308a.99.99,0,0,0,0,1.98H32.55a1.186,1.186,0,0,1-1.067.673H30.91a1.184,1.184,0,0,1-1.18-1.183ZM60.722,22.79l-.093-2.661a.99.99,0,0,0-1.026-.954l-1.026.036-.139-3.867a.988.988,0,0,0-.99-.955h-.031a1,1,0,0,0-.959,1.024l.139,3.867-3.516.124-.134-3.866a.99.99,0,0,0-1.98.07l.139,3.867-1.031.036a1,1,0,0,0-.691.315.978.978,0,0,0-.263.71l.093,2.661a3.1,3.1,0,0,0,2.861,2.975l.036.978a2.016,2.016,0,0,0,2.01,1.946h.01A26.087,26.087,0,1,1,28.07,1.98a.99.99,0,0,0,0-1.98A28.073,28.073,0,0,0,8.218,47.918a28.067,28.067,0,0,0,47.9-18.892h.047a2.021,2.021,0,0,0,1.949-2.087l-.036-.976a3.1,3.1,0,0,0,2.644-3.17M54.1,27.1a.031.031,0,0,1-.015-.026l-.031-.957,2.047-.072.031.957a.039.039,0,0,1-.01.026.033.033,0,0,1-.026.013l-1.969.069A.03.03,0,0,1,54.1,27.1m3.568-3.092-5.325.188a1.121,1.121,0,0,1-1.15-1.074l-.062-1.672,7.552-.266.057,1.672a1.111,1.111,0,0,1-1.072,1.153" transform="translate(-0.001)" fill="#010d77"/>
  </g>
</svg>
