<svg xmlns="http://www.w3.org/2000/svg" width="15.171" height="18.649" viewBox="0 0 15.171 18.649">
  <path id="fire-svgrepo-com_1_" data-name="fire-svgrepo-com (1)" d="M10.522,18.67C6.122,18.67,3,15.619,3,11.416A11.354,11.354,0,0,1,4.4,6.68a.583.583,0,0,1,1.073.137,9.5,9.5,0,0,0,.84,2.113,3.649,3.649,0,0,0,1.009,1.108,10.955,10.955,0,0,1-.128-4.331A7.047,7.047,0,0,1,11.755.045a.583.583,0,0,1,.734.671,11.045,11.045,0,0,0,.655,5.91c.114.246.272.531.442.816a8.063,8.063,0,0,1,.239-1.214,3.418,3.418,0,0,1,1.695-2.174.583.583,0,0,1,.812.639,4.3,4.3,0,0,0,.757,2.68,6.663,6.663,0,0,1,1.081,4.043c0,4.2-3.218,7.254-7.651,7.254ZM4.818,8.538a8.263,8.263,0,0,0-.651,2.878A6,6,0,0,0,10.521,17.5c3.757,0,6.484-2.56,6.484-6.087a5.554,5.554,0,0,0-.914-3.443,6.6,6.6,0,0,1-.84-2.115,2.728,2.728,0,0,0-.3.691,9.293,9.293,0,0,0-.265,2.713.584.584,0,0,1-1.059.376,20.858,20.858,0,0,1-1.539-2.521,11.423,11.423,0,0,1-.837-5.552A6.135,6.135,0,0,0,8.338,5.921,10.7,10.7,0,0,0,8.783,10.9a.583.583,0,0,1-.681.777A5.019,5.019,0,0,1,5.323,9.554a6.678,6.678,0,0,1-.5-1.017Z" transform="translate(-3.001 -0.022)" fill="#010d77"/>
</svg>
