<svg xmlns="http://www.w3.org/2000/svg" width="17.5" height="17.5" viewBox="0 0 17.5 17.5">
  <path id="phone-rounded-svgrepo-com_2_" data-name="phone-rounded-svgrepo-com (2)" d="M7.738,3.25a3.327,3.327,0,0,1,2.955,1.7l.649,1.163a3.582,3.582,0,0,1-.68,4.228c-.2.254-.234.975.894,2.1a2.823,2.823,0,0,0,1.724,1,.645.645,0,0,0,.38-.105,3.753,3.753,0,0,1,2.61-1.094,3.324,3.324,0,0,1,1.617.415l1.163.649a3.307,3.307,0,0,1,1.667,2.459,3.855,3.855,0,0,1-1.123,3.226,5.274,5.274,0,0,1-3.5,1.75c-.124,0-.251.007-.376.007a12.005,12.005,0,0,1-8.582-3.887,13.472,13.472,0,0,1-3.253-4.982A10.617,10.617,0,0,1,3.257,7.9a5.274,5.274,0,0,1,1.75-3.5A3.85,3.85,0,0,1,7.738,3.25Zm5.541,11.693a4.094,4.094,0,0,1-2.785-1.437C7.971,10.982,9.515,9.367,9.582,9.3a2.083,2.083,0,0,0,.449-2.455L9.383,5.682A1.822,1.822,0,0,0,7.738,4.75a2.361,2.361,0,0,0-1.67.718A4.011,4.011,0,0,0,4.756,7.962,10.4,10.4,0,0,0,8.2,15.8a10.542,10.542,0,0,0,7.521,3.448c.106,0,.214,0,.319-.006a4.011,4.011,0,0,0,2.494-1.312,2.348,2.348,0,0,0,.7-1.959,1.8,1.8,0,0,0-.912-1.356l-1.163-.649a1.821,1.821,0,0,0-.886-.225,2.244,2.244,0,0,0-1.567.672A2.034,2.034,0,0,1,13.279,14.943Z" transform="translate(-3.25 -3.25)" fill="#3881ef"/>
</svg>
